<?xml version="1.0" encoding="UTF-8"?>
<svg width="700pt" height="700pt" version="1.1" viewBox="0 0 700 700" xmlns="http://www.w3.org/2000/svg">
 <g>
  <path d="m239.17 140c0-61.211 49.621-110.83 110.83-110.83s110.83 49.621 110.83 110.83-49.621 110.83-110.83 110.83-110.83-49.621-110.83-110.83z"/>
  <path d="m196.41 347.66c41.434-20.305 94.848-38.492 153.59-38.492s112.15 18.188 153.59 38.492c30.805 15.098 47.309 43.258 47.309 72.34s-16.504 57.242-47.309 72.34c-41.434 20.305-94.848 38.492-153.59 38.492s-112.15-18.188-153.59-38.492c-30.805-15.098-47.305-43.258-47.305-72.34s16.5-57.242 47.305-72.34z"/>
 </g>
</svg>
