<?xml version="1.0" encoding="UTF-8"?>
<svg width="700pt" height="700pt" version="1.1" viewBox="0 0 700 700" xmlns="http://www.w3.org/2000/svg">
 <path d="m287.07 41.988c-3.7305-0.015625-7.3125 1.4609-9.9531 4.0977-2.6367 2.6406-4.1133 6.2227-4.1016 9.957v10.227h-59.637c-24.867 0-45.363 20.523-45.363 45.391v361.07c0 24.867 20.496 45.281 45.363 45.281h273.25c24.867 0 45.363-20.414 45.363-45.281v-361.07c0-24.867-20.496-45.391-45.363-45.391h-59.633v-10.227c0.027344-7.7344-6.2148-14.027-13.949-14.055zm13.945 28h97.973v20.59h-97.973zm-87.637 24.309h59.637v10.336c0.03125 7.7305 6.3242 13.973 14.055 13.945h125.97c7.6914-0.03125 13.918-6.2578 13.949-13.945v-10.336h59.637c9.8516 0 17.363 7.5352 17.363 17.363v361.07c0 9.8281-7.5117 17.254-17.363 17.254h-273.25c-9.8477 0-17.363-7.4258-17.363-17.254v-361.07c0-9.8281 7.5117-17.363 17.363-17.363zm96.004 68.195c-3.6953 0.14062-7.1875 1.7461-9.707 4.4531l-30.898 33.172-13.234-13.344c-5.4062-5.4844-14.227-5.5703-19.742-0.19141-2.6562 2.6016-4.1719 6.1523-4.207 9.8711s1.4102 7.3008 4.0156 9.9531l23.543 23.789c2.668 2.707 6.3242 4.2109 10.125 4.1719 3.8008-0.042969 7.4219-1.625 10.027-4.3906l40.934-44.023c5.2344-5.6602 4.9023-14.484-0.73438-19.742-2.7422-2.5391-6.3867-3.8789-10.117-3.7188zm58.078 21.902c-3.7109 0.011719-7.2656 1.5-9.8828 4.1367-2.6133 2.6367-4.0742 6.2031-4.0625 9.918 0.015625 7.6992 6.2461 13.941 13.945 13.973h87.035c7.7031-0.03125 13.934-6.2734 13.945-13.973 0.015625-3.7148-1.4453-7.2812-4.0586-9.918-2.6172-2.6367-6.1719-4.125-9.8867-4.1367zm-58.078 78.039c-3.6914 0.13672-7.1797 1.7266-9.707 4.4297l-30.898 33.195-13.234-13.344c-5.4062-5.4844-14.227-5.5703-19.742-0.19141-2.6562 2.6016-4.1719 6.1523-4.207 9.8711s1.4102 7.3008 4.0156 9.9531l23.543 23.789c2.6836 2.6914 6.3477 4.1758 10.148 4.1172 3.8008-0.0625 7.4102-1.668 10.004-4.4453l40.934-43.914c5.2344-5.6641 4.9023-14.488-0.73438-19.742-2.7422-2.543-6.3867-3.8828-10.117-3.7188zm58.078 21.902c-3.7109 0.011718-7.2656 1.5-9.8828 4.1367-2.6133 2.6367-4.0742 6.2031-4.0625 9.918 0.03125 7.6875 6.2578 13.914 13.945 13.945h87.035c7.6914-0.03125 13.918-6.2578 13.945-13.945 0.015625-3.7148-1.4453-7.2812-4.0586-9.918-2.6172-2.6367-6.1719-4.125-9.8867-4.1367zm-58.078 78.039c-3.6914 0.13672-7.1797 1.7266-9.707 4.4297l-30.898 33.168-13.234-13.426c-5.4297-5.4609-14.25-5.5117-19.742-0.11328-2.6641 2.6016-4.1836 6.1602-4.2227 9.8867-0.035157 3.7266 1.418 7.3125 4.0312 9.9648l23.543 23.762c2.6797 2.6953 6.3398 4.1875 10.141 4.1289 3.8008-0.054687 7.4141-1.6562 10.012-4.4297l40.934-43.914c5.2344-5.6641 4.9023-14.488-0.73438-19.742-2.7422-2.5391-6.3867-3.8789-10.117-3.7188zm58.078 21.902c-3.7109 0.011718-7.2656 1.5-9.8828 4.1367-2.6133 2.6367-4.0742 6.2031-4.0625 9.918 0.03125 7.6875 6.2578 13.914 13.945 13.945h87.035c7.6914-0.03125 13.918-6.2578 13.945-13.945 0.015625-3.7148-1.4453-7.2812-4.0586-9.918-2.6172-2.6367-6.1719-4.125-9.8867-4.1367z" fill-rule="evenodd"/>
</svg>
